<?xml version="1.0" encoding="iso-8859-1"?>
<!-- Generator: Adobe Illustrator 19.0.0, SVG Export Plug-In . SVG Version: 6.00 Build 0)  -->
<svg version="1.1" id="Layer_1" xmlns="http://www.w3.org/2000/svg" xmlns:xlink="http://www.w3.org/1999/xlink" x="0px" y="0px"
	 viewBox="0 0 512 512" style="enable-background:new 0 0 512 512;" xml:space="preserve">
<path style="fill:#999999;" d="M506.417,124.581l-63.552,89.576c-1.058,1.493-2.795,2.197-4.491,1.994l-0.501-0.067l-90.946-11.045
	l-54.801-6.662c-1.397-0.177-2.713-0.583-3.921-1.18l-30.311,1.275c-0.285,0.028-0.57,0.067-0.855,0.082
	c-0.339,0.013-0.692,0.013-1.031,0c-0.637,0.028-1.248-0.014-1.873-0.082l-30.338-1.275c-0.922,0.462-1.899,0.814-2.957,1.031
	c-0.367,0.069-0.76,0.136-1.126,0.177l-54.326,5.956l-103.198,11.33l-0.447,0.054c-1.804,0.19-3.473-0.72-4.342-2.199L5.583,124.581
	l57.949,81.027l115.857-23.826l4.843-0.991l-2.754-1.438L63.002,117.635l-0.257-0.136c-1.153-0.611-1.804-1.804-1.75-3.026
	l3.487-83.103l3.392,80.744l107.417,44.951l-29.796-78.194l-0.244-0.652c-0.502-1.316-0.352-2.741,0.272-3.894L186.294,0
	L156.39,76.266l45.724,85.274l3.352,6.255c0.393,0.747,0.706,1.506,0.936,2.279l9.891,4.139c2.782-0.475,5.523,0.013,7.843,1.261
	l29.999-1.261c0.285-0.041,0.557-0.069,0.855-0.082c0.326-0.014,0.692-0.014,1.018,0c0.637-0.028,1.262,0.013,1.873,0.082
	l29.971,1.248c2.13-1.14,4.627-1.669,7.232-1.357c0.203,0.028,0.408,0.067,0.624,0.108l9.891-4.139
	c0.082-0.285,0.177-0.57,0.272-0.855c0.19-0.475,0.421-0.991,0.652-1.424l3.365-6.268l45.71-85.261L325.691,0l40.772,74.326
	c0.692,1.235,0.747,2.646,0.285,3.88l-0.258,0.665l-29.796,78.193l107.432-44.951l3.392-80.744l3.501,83.103
	c0.054,1.302-0.665,2.456-1.75,3.026l-0.272,0.136l-118.462,61.707l-3.365,1.75l5.943,1.302l103.714,22.781L506.417,124.581z"/>
<path style="fill:#808080;" d="M346.926,205.04l-54.801-6.662c-1.397-0.177-2.713-0.583-3.921-1.18l-30.311,1.275
	c-0.285,0.028-0.57,0.067-0.855,0.082c-0.339,0.013-0.692,0.013-1.031,0c-0.637,0.028-1.248-0.014-1.873-0.082l-30.338-1.275
	c-0.922,0.462-1.899,0.814-2.957,1.031c-0.367,0.069-0.76,0.136-1.126,0.177l-54.326,5.956c3.663-8.168,8.385-15.753,14.002-22.577
	c0.692-0.814,1.384-1.628,2.089-2.428c6.011-6.839,12.958-12.849,20.637-17.815l3.352,6.255c0.393,0.747,0.706,1.506,0.936,2.279
	l9.891,4.139c2.782-0.475,5.523,0.013,7.843,1.261l29.999-1.261c0.285-0.041,0.557-0.069,0.855-0.082
	c0.326-0.014,0.692-0.014,1.018,0c0.637-0.028,1.262,0.013,1.873,0.082l29.971,1.248c2.13-1.14,4.627-1.669,7.232-1.357
	c0.203,0.028,0.408,0.067,0.624,0.108l9.891-4.139c0.082-0.285,0.177-0.57,0.272-0.855c0.19-0.475,0.421-0.991,0.652-1.424
	l3.365-6.268c7.679,4.966,14.626,10.977,20.65,17.814c0.882,0.991,1.737,2.008,2.579,3.053
	C338.677,189.247,343.33,196.845,346.926,205.04z"/>
<g>
	<path style="fill:#999999;" d="M365.964,247.225L468.084,351.46l0.246,0.251c1.587,1.619,1.904,4.015,0.976,5.948l-74.494,154.34
		l64.447-158.798l1.224,6.199l-108.594-97.475c-4.185-3.757-4.532-10.193-0.775-14.377c3.757-4.185,10.193-4.532,14.377-0.775
		C365.647,246.913,365.818,247.078,365.964,247.225z"/>
	<path style="fill:#999999;" d="M160.137,261.908L51.525,359.401l1.223-6.199L117.206,512L42.7,357.66
		c-0.986-2.042-0.529-4.407,0.968-5.941l0.255-0.257l102.14-104.255c3.935-4.016,10.381-4.082,14.398-0.147
		c4.016,3.935,4.082,10.38,0.148,14.398C160.463,261.607,160.291,261.77,160.137,261.908z"/>
</g>
<g>
	<path style="fill:#4D4D4D;" d="M271.343,62.75c3.091,0.905,5.586,2.455,7.825,4.235c2.178,1.81,4.079,3.879,5.629,6.124
		c3.117,4.491,4.99,9.595,5.813,14.797c0.809,5.208,0.555,10.555-0.946,15.692c-1.59,5.115-4.092,10.109-9.028,14.185
		c-3.543-5.298-5.379-9.784-6.996-14.145c-1.53-4.338-2.504-8.466-3.141-12.623c-0.626-4.163-0.932-8.316-0.833-12.807
		c0.052-1.138,0.025-2.25,0.153-3.455c0.081-1.185,0.145-2.378,0.289-3.647c0.147-1.269,0.242-2.544,0.476-3.943
		C270.749,65.799,270.983,64.352,271.343,62.75z"/>
	<path style="fill:#4D4D4D;" d="M231.358,117.782c-2.514-2.024-4.249-4.317-5.736-6.707c-1.408-2.398-2.508-4.911-3.261-7.477
		c-1.507-5.137-1.761-10.481-0.975-15.692c0.801-5.205,2.675-10.312,5.786-14.805c1.55-2.246,3.451-4.316,5.634-6.125
		c2.243-1.778,4.745-3.326,7.847-4.224c1.245,6.247,1.551,10.912,1.703,15.464c0.091,4.489-0.212,8.64-0.861,12.798
		c-0.661,4.153-1.634,8.285-3.17,12.623C236.705,107.998,234.875,112.487,231.358,117.782z"/>
</g>
<path style="fill:#999999;" d="M256.01,193.125c28.52,0,51.654-23.134,51.654-51.654c0-19.605-10.922-36.661-27.014-45.412
	c-7.327-3.975-15.725-6.241-24.64-6.241c-8.928,0-17.313,2.266-24.64,6.241c-16.092,8.751-27.014,25.806-27.014,45.412
	C204.356,169.991,227.476,193.125,256.01,193.125z"/>
<path style="fill:#808080;" d="M272.368,96.06c-16.092,8.751-27.014,25.806-27.014,45.412c0,21.237,12.823,39.479,31.152,47.415
	c-6.285,2.722-13.212,4.237-20.496,4.237c-28.533,0-51.654-23.134-51.654-51.654c0-19.605,10.922-36.661,27.014-45.412
	c7.327-3.975,15.712-6.241,24.64-6.241c7.281,0,14.208,1.533,20.498,4.253C275.098,94.682,273.71,95.331,272.368,96.06z"/>
<path style="fill:#999999;" d="M256.01,451.23c73.145,0,132.437-59.305,132.437-132.45S329.155,186.342,256.01,186.342
	s-132.45,59.292-132.45,132.437S182.865,451.23,256.01,451.23z"/>
<path style="fill:#808080;" d="M184.277,318.778c0,62.698,43.577,115.223,102.091,128.948c-9.749,2.288-19.912,3.502-30.359,3.502
	c-73.145,0-132.45-59.305-132.45-132.45s59.306-132.437,132.45-132.437c10.446,0,20.609,1.214,30.359,3.501
	C227.854,203.565,184.277,256.081,184.277,318.778z"/>
<g>
	<circle style="fill:#4D4D4D;" cx="232.729" cy="116.846" r="6.106"/>
	<circle style="fill:#4D4D4D;" cx="256.014" cy="116.846" r="6.106"/>
	<circle style="fill:#4D4D4D;" cx="279.287" cy="116.846" r="6.106"/>
	<circle style="fill:#4D4D4D;" cx="268.685" cy="134.252" r="6.106"/>
	<circle style="fill:#4D4D4D;" cx="243.332" cy="134.252" r="6.106"/>
</g>
<g>
</g>
<g>
</g>
<g>
</g>
<g>
</g>
<g>
</g>
<g>
</g>
<g>
</g>
<g>
</g>
<g>
</g>
<g>
</g>
<g>
</g>
<g>
</g>
<g>
</g>
<g>
</g>
<g>
</g>
</svg>
